<svg width="40" height="40" viewBox="0 0 40 40" fill="none" xmlns="http://www.w3.org/2000/svg">
<rect width="40" height="40" rx="10" fill="#DA0175"/>
<g clip-path="url(#clip0_1601_56862)">
<path d="M9.45508 12.8691H13.0914" stroke="white" stroke-width="1.5" stroke-linecap="round" stroke-linejoin="round"/>
<path d="M9.45508 27.4785H13.0914" stroke="white" stroke-width="1.5" stroke-linecap="round" stroke-linejoin="round"/>
<path d="M21.0918 12.8691H30.5463" stroke="white" stroke-width="1.5" stroke-linecap="round" stroke-linejoin="round"/>
<path d="M21.0918 27.4785H30.5463" stroke="white" stroke-width="1.5" stroke-linecap="round" stroke-linejoin="round"/>
<path d="M9.45508 20.1738H20.3642" stroke="white" stroke-width="1.5" stroke-linecap="round" stroke-linejoin="round"/>
<path d="M28.3633 20.1738H30.5451" stroke="white" stroke-width="1.5" stroke-linecap="round" stroke-linejoin="round"/>
<path d="M17.0911 15.9992C18.8986 15.9992 20.3638 14.5976 20.3638 12.8687C20.3638 11.1398 18.8986 9.73828 17.0911 9.73828C15.2836 9.73828 13.8184 11.1398 13.8184 12.8687C13.8184 14.5976 15.2836 15.9992 17.0911 15.9992Z" stroke="white" stroke-width="1.5" stroke-linecap="round" stroke-linejoin="round"/>
<path d="M17.0911 30.6085C18.8986 30.6085 20.3638 29.207 20.3638 27.4781C20.3638 25.7492 18.8986 24.3477 17.0911 24.3477C15.2836 24.3477 13.8184 25.7492 13.8184 27.4781C13.8184 29.207 15.2836 30.6085 17.0911 30.6085Z" stroke="white" stroke-width="1.5" stroke-linecap="round" stroke-linejoin="round"/>
<path d="M24.3645 23.3038C26.172 23.3038 27.6373 21.9023 27.6373 20.1734C27.6373 18.4445 26.172 17.043 24.3645 17.043C22.557 17.043 21.0918 18.4445 21.0918 20.1734C21.0918 21.9023 22.557 23.3038 24.3645 23.3038Z" stroke="white" stroke-width="1.5" stroke-linecap="round" stroke-linejoin="round"/>
</g>
<defs>
<clipPath id="clip0_1601_56862">
<rect width="24" height="24" fill="white" transform="translate(8 8)"/>
</clipPath>
</defs>
</svg>
