<svg width="318" height="39" viewBox="0 0 318 39" fill="none" xmlns="http://www.w3.org/2000/svg">
<rect width="318" height="39" rx="10" fill="white"/>
<path d="M10.304 25.09C10.076 25.09 9.896 25.024 9.764 24.892C9.632 24.748 9.566 24.562 9.566 24.334V13.03C9.566 12.814 9.632 12.64 9.764 12.508C9.908 12.376 10.094 12.31 10.322 12.31H14.588C15.92 12.31 16.952 12.634 17.684 13.282C18.428 13.93 18.8 14.848 18.8 16.036C18.8 17.224 18.428 18.148 17.684 18.808C16.94 19.468 15.908 19.798 14.588 19.798H11.042V24.334C11.042 24.562 10.976 24.748 10.844 24.892C10.712 25.024 10.532 25.09 10.304 25.09ZM14.444 18.574C16.376 18.574 17.342 17.728 17.342 16.036C17.342 14.368 16.376 13.534 14.444 13.534H11.042V18.574H14.444ZM27.4563 22.966C27.5883 22.966 27.7023 23.02 27.7983 23.128C27.8943 23.236 27.9423 23.374 27.9423 23.542C27.9423 23.842 27.7323 24.118 27.3123 24.37C26.8803 24.622 26.4243 24.814 25.9443 24.946C25.4643 25.066 24.9963 25.126 24.5403 25.126C23.1843 25.126 22.1103 24.724 21.3183 23.92C20.5383 23.116 20.1483 22.006 20.1483 20.59C20.1483 19.69 20.3223 18.898 20.6703 18.214C21.0183 17.518 21.5043 16.978 22.1283 16.594C22.7643 16.21 23.4843 16.018 24.2883 16.018C25.4283 16.018 26.3343 16.39 27.0063 17.134C27.6783 17.878 28.0143 18.886 28.0143 20.158C28.0143 20.398 27.9663 20.572 27.8703 20.68C27.7743 20.788 27.6183 20.842 27.4023 20.842H21.6063C21.7143 22.906 22.6923 23.938 24.5403 23.938C25.0083 23.938 25.4103 23.878 25.7463 23.758C26.0823 23.626 26.4423 23.452 26.8263 23.236C27.1383 23.056 27.3483 22.966 27.4563 22.966ZM24.3063 17.152C23.5383 17.152 22.9203 17.392 22.4523 17.872C21.9963 18.352 21.7263 19.03 21.6423 19.906H26.7363C26.7123 19.018 26.4903 18.34 26.0703 17.872C25.6503 17.392 25.0623 17.152 24.3063 17.152ZM33.1145 25.126C32.5625 25.126 32.0345 25.06 31.5305 24.928C31.0385 24.796 30.6005 24.61 30.2165 24.37C30.0005 24.226 29.8445 24.094 29.7485 23.974C29.6645 23.842 29.6225 23.686 29.6225 23.506C29.6225 23.35 29.6645 23.224 29.7485 23.128C29.8445 23.02 29.9645 22.966 30.1085 22.966C30.2525 22.966 30.4625 23.056 30.7385 23.236C31.0985 23.452 31.4525 23.626 31.8005 23.758C32.1605 23.878 32.6045 23.938 33.1325 23.938C33.7805 23.938 34.2845 23.824 34.6445 23.596C35.0045 23.368 35.1845 23.038 35.1845 22.606C35.1845 22.342 35.1185 22.132 34.9865 21.976C34.8545 21.808 34.6265 21.664 34.3025 21.544C33.9785 21.412 33.5045 21.28 32.8805 21.148C31.8245 20.92 31.0685 20.614 30.6125 20.23C30.1565 19.846 29.9285 19.324 29.9285 18.664C29.9285 18.148 30.0725 17.692 30.3605 17.296C30.6485 16.9 31.0445 16.588 31.5485 16.36C32.0645 16.132 32.6465 16.018 33.2945 16.018C33.7625 16.018 34.2125 16.084 34.6445 16.216C35.0885 16.336 35.4785 16.51 35.8145 16.738C36.2225 17.026 36.4265 17.326 36.4265 17.638C36.4265 17.794 36.3785 17.926 36.2825 18.034C36.1865 18.142 36.0725 18.196 35.9405 18.196C35.7965 18.196 35.5805 18.094 35.2925 17.89C34.9565 17.674 34.6385 17.506 34.3385 17.386C34.0385 17.266 33.6665 17.206 33.2225 17.206C32.6585 17.206 32.2025 17.332 31.8545 17.584C31.5185 17.836 31.3505 18.172 31.3505 18.592C31.3505 18.856 31.4105 19.072 31.5305 19.24C31.6625 19.396 31.8725 19.54 32.1605 19.672C32.4605 19.792 32.8865 19.912 33.4385 20.032C34.2545 20.212 34.8845 20.41 35.3285 20.626C35.7845 20.842 36.1085 21.106 36.3005 21.418C36.4925 21.73 36.5885 22.126 36.5885 22.606C36.5885 23.362 36.2705 23.974 35.6345 24.442C34.9985 24.898 34.1585 25.126 33.1145 25.126ZM45.8489 16.054C46.0769 16.054 46.2569 16.12 46.3889 16.252C46.5209 16.384 46.5869 16.558 46.5869 16.774V27.628C46.5869 27.832 46.5209 28 46.3889 28.132C46.2569 28.264 46.0769 28.33 45.8489 28.33C45.6209 28.33 45.4409 28.264 45.3089 28.132C45.1889 28.012 45.1289 27.844 45.1289 27.628V23.398C44.8649 23.95 44.4749 24.376 43.9589 24.676C43.4549 24.976 42.8609 25.126 42.1769 25.126C41.3969 25.126 40.7129 24.94 40.1249 24.568C39.5489 24.196 39.0989 23.674 38.7749 23.002C38.4509 22.318 38.2889 21.52 38.2889 20.608C38.2889 19.696 38.4509 18.898 38.7749 18.214C39.0989 17.518 39.5549 16.978 40.1429 16.594C40.7309 16.21 41.4089 16.018 42.1769 16.018C42.8609 16.018 43.4549 16.168 43.9589 16.468C44.4749 16.768 44.8649 17.194 45.1289 17.746V16.774C45.1289 16.558 45.1889 16.384 45.3089 16.252C45.4409 16.12 45.6209 16.054 45.8489 16.054ZM42.4649 23.92C43.3169 23.92 43.9709 23.632 44.4269 23.056C44.8949 22.468 45.1289 21.64 45.1289 20.572C45.1289 19.504 44.8949 18.682 44.4269 18.106C43.9709 17.53 43.3169 17.242 42.4649 17.242C41.6129 17.242 40.9469 17.542 40.4669 18.142C39.9989 18.73 39.7649 19.552 39.7649 20.608C39.7649 21.664 39.9989 22.48 40.4669 23.056C40.9469 23.632 41.6129 23.92 42.4649 23.92ZM55.9475 16.054C56.1755 16.054 56.3495 16.12 56.4695 16.252C56.6015 16.384 56.6675 16.558 56.6675 16.774V24.388C56.6675 24.592 56.6015 24.76 56.4695 24.892C56.3495 25.024 56.1755 25.09 55.9475 25.09C55.7315 25.09 55.5575 25.03 55.4255 24.91C55.3055 24.778 55.2455 24.61 55.2455 24.406V23.506C54.9695 24.034 54.5795 24.436 54.0755 24.712C53.5835 24.988 53.0255 25.126 52.4015 25.126C51.3575 25.126 50.5715 24.838 50.0435 24.262C49.5155 23.674 49.2515 22.81 49.2515 21.67V16.774C49.2515 16.558 49.3175 16.384 49.4495 16.252C49.5815 16.12 49.7615 16.054 49.9895 16.054C50.2175 16.054 50.3915 16.12 50.5115 16.252C50.6435 16.384 50.7095 16.558 50.7095 16.774V21.634C50.7095 22.414 50.8655 22.99 51.1775 23.362C51.4895 23.722 51.9815 23.902 52.6535 23.902C53.4215 23.902 54.0395 23.656 54.5075 23.164C54.9755 22.66 55.2095 22 55.2095 21.184V16.774C55.2095 16.558 55.2755 16.384 55.4075 16.252C55.5395 16.12 55.7195 16.054 55.9475 16.054ZM60.1153 25.09C59.8993 25.09 59.7193 25.03 59.5753 24.91C59.4433 24.778 59.3773 24.598 59.3773 24.37V16.774C59.3773 16.546 59.4433 16.372 59.5753 16.252C59.7193 16.12 59.8993 16.054 60.1153 16.054C60.3313 16.054 60.5053 16.12 60.6373 16.252C60.7693 16.372 60.8353 16.546 60.8353 16.774V24.37C60.8353 24.61 60.7693 24.79 60.6373 24.91C60.5053 25.03 60.3313 25.09 60.1153 25.09ZM60.1153 14.164C59.8273 14.164 59.5933 14.08 59.4133 13.912C59.2333 13.744 59.1433 13.522 59.1433 13.246C59.1433 12.982 59.2333 12.766 59.4133 12.598C59.5933 12.43 59.8273 12.346 60.1153 12.346C60.4033 12.346 60.6373 12.43 60.8173 12.598C60.9973 12.766 61.0873 12.982 61.0873 13.246C61.0873 13.522 60.9973 13.744 60.8173 13.912C60.6373 14.08 60.4033 14.164 60.1153 14.164ZM66.5129 25.126C65.9609 25.126 65.4329 25.06 64.9289 24.928C64.4369 24.796 63.9989 24.61 63.6149 24.37C63.3989 24.226 63.2429 24.094 63.1469 23.974C63.0629 23.842 63.0209 23.686 63.0209 23.506C63.0209 23.35 63.0629 23.224 63.1469 23.128C63.2429 23.02 63.3629 22.966 63.5069 22.966C63.6509 22.966 63.8609 23.056 64.1369 23.236C64.4969 23.452 64.8509 23.626 65.1989 23.758C65.5589 23.878 66.0029 23.938 66.5309 23.938C67.1789 23.938 67.6829 23.824 68.0429 23.596C68.4029 23.368 68.5829 23.038 68.5829 22.606C68.5829 22.342 68.5169 22.132 68.3849 21.976C68.2529 21.808 68.0249 21.664 67.7009 21.544C67.3769 21.412 66.9029 21.28 66.2789 21.148C65.2229 20.92 64.4669 20.614 64.0109 20.23C63.5549 19.846 63.3269 19.324 63.3269 18.664C63.3269 18.148 63.4709 17.692 63.7589 17.296C64.0469 16.9 64.4429 16.588 64.9469 16.36C65.4629 16.132 66.0449 16.018 66.6929 16.018C67.1609 16.018 67.6109 16.084 68.0429 16.216C68.4869 16.336 68.8769 16.51 69.2129 16.738C69.6209 17.026 69.8249 17.326 69.8249 17.638C69.8249 17.794 69.7769 17.926 69.6809 18.034C69.5849 18.142 69.4709 18.196 69.3389 18.196C69.1949 18.196 68.9789 18.094 68.6909 17.89C68.3549 17.674 68.0369 17.506 67.7369 17.386C67.4369 17.266 67.0649 17.206 66.6209 17.206C66.0569 17.206 65.6009 17.332 65.2529 17.584C64.9169 17.836 64.7489 18.172 64.7489 18.592C64.7489 18.856 64.8089 19.072 64.9289 19.24C65.0609 19.396 65.2709 19.54 65.5589 19.672C65.8589 19.792 66.2849 19.912 66.8369 20.032C67.6529 20.212 68.2829 20.41 68.7269 20.626C69.1829 20.842 69.5069 21.106 69.6989 21.418C69.8909 21.73 69.9869 22.126 69.9869 22.606C69.9869 23.362 69.6689 23.974 69.0329 24.442C68.3969 24.898 67.5569 25.126 66.5129 25.126ZM75.7914 16.018C77.9874 16.018 79.0854 17.17 79.0854 19.474V24.37C79.0854 24.586 79.0194 24.76 78.8874 24.892C78.7674 25.024 78.5994 25.09 78.3834 25.09C78.1674 25.09 77.9934 25.024 77.8614 24.892C77.7294 24.76 77.6634 24.586 77.6634 24.37V23.506C77.4354 24.022 77.0874 24.424 76.6194 24.712C76.1514 24.988 75.6114 25.126 74.9994 25.126C74.4354 25.126 73.9134 25.012 73.4334 24.784C72.9654 24.556 72.5934 24.238 72.3174 23.83C72.0414 23.422 71.9034 22.972 71.9034 22.48C71.9034 21.82 72.0714 21.31 72.4074 20.95C72.7434 20.578 73.2954 20.314 74.0634 20.158C74.8314 19.99 75.8994 19.906 77.2674 19.906H77.6634V19.312C77.6634 18.592 77.5134 18.064 77.2134 17.728C76.9254 17.392 76.4514 17.224 75.7914 17.224C74.9754 17.224 74.1474 17.446 73.3074 17.89C72.9834 18.094 72.7554 18.196 72.6234 18.196C72.4794 18.196 72.3594 18.142 72.2634 18.034C72.1674 17.926 72.1194 17.788 72.1194 17.62C72.1194 17.452 72.1674 17.308 72.2634 17.188C72.3714 17.056 72.5394 16.924 72.7674 16.792C73.1874 16.552 73.6614 16.366 74.1894 16.234C74.7294 16.09 75.2634 16.018 75.7914 16.018ZM75.1974 23.974C75.9174 23.974 76.5054 23.734 76.9614 23.254C77.4294 22.762 77.6634 22.132 77.6634 21.364V20.842H77.3394C76.2834 20.842 75.4794 20.89 74.9274 20.986C74.3754 21.07 73.9794 21.22 73.7394 21.436C73.5114 21.64 73.3974 21.946 73.3974 22.354C73.3974 22.822 73.5654 23.212 73.9014 23.524C74.2494 23.824 74.6814 23.974 75.1974 23.974Z" fill="#747488"/>
<path d="M305.25 26.75L301.5 23M290.75 18.5C290.75 15.0482 293.548 12.25 297 12.25C300.452 12.25 303.25 15.0482 303.25 18.5C303.25 21.9518 300.452 24.75 297 24.75C293.548 24.75 290.75 21.9518 290.75 18.5Z" stroke="#3F3F55" stroke-width="1.5" stroke-linecap="round" stroke-linejoin="round"/>
</svg>
