<svg width="97" height="20" viewBox="0 0 97 20" fill="none" xmlns="http://www.w3.org/2000/svg">
<rect x="0.5" y="0.841797" width="96" height="19" rx="8" fill="#EEF6F6"/>
<path d="M28.432 14.8418C28.18 14.8418 27.984 14.7765 27.844 14.6458C27.7133 14.5058 27.648 14.3098 27.648 14.0578V5.7558C27.648 5.5038 27.7133 5.31246 27.844 5.1818C27.984 5.0418 28.18 4.9718 28.432 4.9718H33.542C33.738 4.9718 33.8873 5.02313 33.99 5.1258C34.0927 5.21913 34.144 5.35913 34.144 5.5458C34.144 5.7418 34.0927 5.89113 33.99 5.9938C33.8873 6.09646 33.738 6.1478 33.542 6.1478H29.048V9.2418H33.234C33.4393 9.2418 33.5887 9.29313 33.682 9.3958C33.7847 9.49846 33.836 9.64313 33.836 9.8298C33.836 10.0258 33.7847 10.1751 33.682 10.2778C33.5887 10.3711 33.4393 10.4178 33.234 10.4178H29.048V13.6658H33.542C33.738 13.6658 33.8873 13.7171 33.99 13.8198C34.0927 13.9225 34.144 14.0671 34.144 14.2538C34.144 14.4498 34.0927 14.5991 33.99 14.7018C33.8873 14.7951 33.738 14.8418 33.542 14.8418H28.432ZM36.4661 14.9398C36.2421 14.9398 36.0695 14.8791 35.9481 14.7578C35.8268 14.6271 35.7661 14.4498 35.7661 14.2258V8.6258C35.7661 8.39246 35.8268 8.21513 35.9481 8.0938C36.0695 7.97246 36.2375 7.9118 36.4521 7.9118C36.6761 7.9118 36.8441 7.97246 36.9561 8.0938C37.0775 8.21513 37.1381 8.39246 37.1381 8.6258V9.7738L36.9841 9.4658C37.1708 8.97113 37.4601 8.5838 37.8521 8.3038C38.2441 8.0238 38.7155 7.8838 39.2661 7.8838C39.8355 7.8838 40.2975 8.01913 40.6521 8.2898C41.0068 8.56046 41.2495 8.9758 41.3801 9.5358H41.1841C41.3615 9.02246 41.6648 8.62113 42.0941 8.3318C42.5235 8.03313 43.0228 7.8838 43.5921 7.8838C44.1148 7.8838 44.5441 7.98646 44.8801 8.1918C45.2161 8.3878 45.4681 8.69113 45.6361 9.1018C45.8041 9.50313 45.8881 10.0118 45.8881 10.6278V14.2258C45.8881 14.4498 45.8228 14.6271 45.6921 14.7578C45.5708 14.8791 45.3981 14.9398 45.1741 14.9398C44.9501 14.9398 44.7775 14.8791 44.6561 14.7578C44.5348 14.6271 44.4741 14.4498 44.4741 14.2258V10.6978C44.4741 10.1191 44.3715 9.69446 44.1661 9.4238C43.9701 9.15313 43.6435 9.0178 43.1861 9.0178C42.6728 9.0178 42.2668 9.19513 41.9681 9.5498C41.6695 9.90446 41.5201 10.3945 41.5201 11.0198V14.2258C41.5201 14.4498 41.4595 14.6271 41.3381 14.7578C41.2168 14.8791 41.0441 14.9398 40.8201 14.9398C40.5961 14.9398 40.4188 14.8791 40.2881 14.7578C40.1668 14.6271 40.1061 14.4498 40.1061 14.2258V10.6978C40.1061 10.1191 40.0081 9.69446 39.8121 9.4238C39.6161 9.15313 39.2895 9.0178 38.8321 9.0178C38.3188 9.0178 37.9128 9.19513 37.6141 9.5498C37.3248 9.90446 37.1801 10.3945 37.1801 11.0198V14.2258C37.1801 14.7018 36.9421 14.9398 36.4661 14.9398ZM54.1605 14.9678C53.5632 14.9678 53.0358 14.8278 52.5785 14.5478C52.1305 14.2585 51.7805 13.8478 51.5285 13.3158C51.2765 12.7745 51.1505 12.1445 51.1505 11.4258C51.1505 10.6885 51.2765 10.0585 51.5285 9.5358C51.7805 9.01313 52.1305 8.60713 52.5785 8.3178C53.0358 8.02846 53.5632 7.8838 54.1605 7.8838C54.7578 7.8838 55.2712 8.03313 55.7005 8.3318C56.1392 8.62113 56.4332 9.01313 56.5825 9.5078H56.4285V5.5878C56.4285 5.35446 56.4892 5.17713 56.6105 5.0558C56.7318 4.93446 56.9045 4.8738 57.1285 4.8738C57.3525 4.8738 57.5252 4.93446 57.6465 5.0558C57.7772 5.17713 57.8425 5.35446 57.8425 5.5878V14.2258C57.8425 14.4498 57.7818 14.6271 57.6605 14.7578C57.5392 14.8791 57.3665 14.9398 57.1425 14.9398C56.9185 14.9398 56.7458 14.8791 56.6245 14.7578C56.5032 14.6271 56.4425 14.4498 56.4425 14.2258V12.9938L56.5965 13.3018C56.4472 13.8058 56.1532 14.2118 55.7145 14.5198C55.2852 14.8185 54.7672 14.9678 54.1605 14.9678ZM54.5245 13.8758C54.9072 13.8758 55.2432 13.7825 55.5325 13.5958C55.8218 13.4091 56.0458 13.1338 56.2045 12.7698C56.3725 12.4058 56.4565 11.9578 56.4565 11.4258C56.4565 10.6231 56.2792 10.0165 55.9245 9.6058C55.5698 9.19513 55.1032 8.9898 54.5245 8.9898C54.1325 8.9898 53.7918 9.08313 53.5025 9.2698C53.2132 9.44713 52.9845 9.7178 52.8165 10.0818C52.6578 10.4458 52.5785 10.8938 52.5785 11.4258C52.5785 12.2191 52.7558 12.8258 53.1105 13.2458C53.4652 13.6658 53.9365 13.8758 54.5245 13.8758ZM60.528 14.9258C60.304 14.9258 60.1313 14.8605 60.01 14.7298C59.8887 14.5898 59.828 14.3985 59.828 14.1558V8.6958C59.828 8.45313 59.8887 8.26646 60.01 8.1358C60.1313 8.00513 60.304 7.9398 60.528 7.9398C60.752 7.9398 60.9247 8.00513 61.046 8.1358C61.1767 8.26646 61.242 8.45313 61.242 8.6958V14.1558C61.242 14.3985 61.1813 14.5898 61.06 14.7298C60.9387 14.8605 60.7613 14.9258 60.528 14.9258ZM60.528 6.4838C60.248 6.4838 60.0287 6.4138 59.87 6.2738C59.7207 6.1338 59.646 5.9378 59.646 5.6858C59.646 5.42446 59.7207 5.22846 59.87 5.0978C60.0287 4.9578 60.248 4.8878 60.528 4.8878C60.808 4.8878 61.0227 4.9578 61.172 5.0978C61.3307 5.22846 61.41 5.42446 61.41 5.6858C61.41 5.9378 61.3307 6.1338 61.172 6.2738C61.0227 6.4138 60.808 6.4838 60.528 6.4838ZM65.4163 14.9678C64.9403 14.9678 64.5109 14.8745 64.1283 14.6878C63.7549 14.5011 63.4609 14.2491 63.2463 13.9318C63.0316 13.6145 62.9243 13.2551 62.9243 12.8538C62.9243 12.3498 63.0503 11.9531 63.3023 11.6638C63.5636 11.3651 63.9883 11.1551 64.5763 11.0338C65.1736 10.9031 65.9763 10.8378 66.9843 10.8378H67.6423V11.7058H66.9983C66.3263 11.7058 65.7943 11.7385 65.4023 11.8038C65.0103 11.8691 64.7303 11.9811 64.5623 12.1398C64.4036 12.2891 64.3243 12.4991 64.3243 12.7698C64.3243 13.1245 64.4456 13.4138 64.6883 13.6378C64.9309 13.8525 65.2669 13.9598 65.6963 13.9598C66.0416 13.9598 66.3449 13.8805 66.6063 13.7218C66.8676 13.5538 67.0729 13.3298 67.2223 13.0498C67.3809 12.7698 67.4603 12.4478 67.4603 12.0838V10.4738C67.4603 9.9418 67.3483 9.55913 67.1243 9.3258C66.9003 9.09246 66.5316 8.9758 66.0183 8.9758C65.7196 8.9758 65.4069 9.01313 65.0803 9.0878C64.7629 9.16246 64.4316 9.28846 64.0863 9.4658C63.9276 9.54046 63.7923 9.5638 63.6803 9.5358C63.5683 9.5078 63.4796 9.44713 63.4143 9.3538C63.3489 9.25113 63.3116 9.1438 63.3023 9.0318C63.3023 8.91046 63.3303 8.7938 63.3863 8.6818C63.4516 8.5698 63.5589 8.4858 63.7083 8.4298C64.1189 8.2338 64.5249 8.0938 64.9263 8.0098C65.3276 7.9258 65.7056 7.8838 66.0603 7.8838C66.6856 7.8838 67.1989 7.9818 67.6003 8.1778C68.0109 8.3738 68.3143 8.67246 68.5103 9.0738C68.7063 9.47513 68.8043 9.99313 68.8043 10.6278V14.2258C68.8043 14.4498 68.7483 14.6271 68.6363 14.7578C68.5243 14.8791 68.3609 14.9398 68.1463 14.9398C67.9409 14.9398 67.7776 14.8791 67.6563 14.7578C67.5349 14.6271 67.4743 14.4498 67.4743 14.2258V13.3158H67.6003C67.5256 13.6611 67.3856 13.9598 67.1803 14.2118C66.9843 14.4545 66.7369 14.6411 66.4383 14.7718C66.1396 14.9025 65.7989 14.9678 65.4163 14.9678Z" fill="#1FA7AF"/>
</svg>
