<svg width="100" height="20" viewBox="0 0 100 20" fill="none" xmlns="http://www.w3.org/2000/svg">
<rect y="0.548828" width="100" height="19" rx="8" fill="#FFEFEF"/>
<path d="M9.876 14.6468C9.64267 14.6468 9.46067 14.5815 9.33 14.4508C9.20867 14.3202 9.148 14.1382 9.148 13.9048V5.32283C9.148 5.08016 9.20867 4.89816 9.33 4.77683C9.46067 4.64616 9.64267 4.58083 9.876 4.58083C10.1093 4.58083 10.2867 4.64616 10.408 4.77683C10.5387 4.89816 10.604 5.08016 10.604 5.32283V13.9048C10.604 14.1382 10.5433 14.3202 10.422 14.4508C10.3007 14.5815 10.1187 14.6468 9.876 14.6468ZM13.4401 14.6468C13.2161 14.6468 13.0434 14.5862 12.9221 14.4648C12.8008 14.3342 12.7401 14.1568 12.7401 13.9328V8.33283C12.7401 8.09949 12.8008 7.92216 12.9221 7.80083C13.0434 7.67949 13.2114 7.61883 13.4261 7.61883C13.6501 7.61883 13.8181 7.67949 13.9301 7.80083C14.0514 7.92216 14.1121 8.09949 14.1121 8.33283V9.42483L13.9581 9.17283C14.1634 8.65016 14.4854 8.25816 14.9241 7.99683C15.3628 7.72616 15.8668 7.59083 16.4361 7.59083C16.9774 7.59083 17.4254 7.69349 17.7801 7.89883C18.1441 8.09483 18.4148 8.39816 18.5921 8.80883C18.7694 9.21016 18.8581 9.71883 18.8581 10.3348V13.9328C18.8581 14.1568 18.7974 14.3342 18.6761 14.4648C18.5548 14.5862 18.3821 14.6468 18.1581 14.6468C17.9248 14.6468 17.7474 14.5862 17.6261 14.4648C17.5048 14.3342 17.4441 14.1568 17.4441 13.9328V10.4188C17.4441 9.83083 17.3274 9.40149 17.0941 9.13083C16.8701 8.86016 16.5154 8.72483 16.0301 8.72483C15.4608 8.72483 15.0034 8.90216 14.6581 9.25683C14.3221 9.61149 14.1541 10.0875 14.1541 10.6848V13.9328C14.1541 14.4088 13.9161 14.6468 13.4401 14.6468ZM22.9905 14.6748C22.5145 14.6748 22.0852 14.5815 21.7025 14.3948C21.3292 14.2082 21.0352 13.9562 20.8205 13.6388C20.6058 13.3215 20.4985 12.9622 20.4985 12.5608C20.4985 12.0568 20.6245 11.6602 20.8765 11.3708C21.1378 11.0722 21.5625 10.8622 22.1505 10.7408C22.7478 10.6102 23.5505 10.5448 24.5585 10.5448H25.2165V11.4128H24.5725C23.9005 11.4128 23.3685 11.4455 22.9765 11.5108C22.5845 11.5762 22.3045 11.6882 22.1365 11.8468C21.9778 11.9962 21.8985 12.2062 21.8985 12.4768C21.8985 12.8315 22.0198 13.1208 22.2625 13.3448C22.5052 13.5595 22.8412 13.6668 23.2705 13.6668C23.6158 13.6668 23.9192 13.5875 24.1805 13.4288C24.4418 13.2608 24.6472 13.0368 24.7965 12.7568C24.9552 12.4768 25.0345 12.1548 25.0345 11.7908V10.1808C25.0345 9.64883 24.9225 9.26616 24.6985 9.03283C24.4745 8.79949 24.1058 8.68283 23.5925 8.68283C23.2938 8.68283 22.9812 8.72016 22.6545 8.79483C22.3372 8.86949 22.0058 8.99549 21.6605 9.17283C21.5018 9.24749 21.3665 9.27083 21.2545 9.24283C21.1425 9.21483 21.0538 9.15416 20.9885 9.06083C20.9232 8.95816 20.8858 8.85083 20.8765 8.73883C20.8765 8.61749 20.9045 8.50083 20.9605 8.38883C21.0258 8.27683 21.1332 8.19283 21.2825 8.13683C21.6932 7.94083 22.0992 7.80083 22.5005 7.71683C22.9018 7.63283 23.2798 7.59083 23.6345 7.59083C24.2598 7.59083 24.7732 7.68883 25.1745 7.88483C25.5852 8.08083 25.8885 8.37949 26.0845 8.78083C26.2805 9.18216 26.3785 9.70016 26.3785 10.3348V13.9328C26.3785 14.1568 26.3225 14.3342 26.2105 14.4648C26.0985 14.5862 25.9352 14.6468 25.7205 14.6468C25.5152 14.6468 25.3518 14.5862 25.2305 14.4648C25.1092 14.3342 25.0485 14.1568 25.0485 13.9328V13.0228H25.1745C25.0998 13.3682 24.9598 13.6668 24.7545 13.9188C24.5585 14.1615 24.3112 14.3482 24.0125 14.4788C23.7138 14.6095 23.3732 14.6748 22.9905 14.6748ZM30.93 14.6748C30.3327 14.6748 29.8054 14.5348 29.348 14.2548C28.9 13.9655 28.55 13.5548 28.298 13.0228C28.046 12.4815 27.92 11.8515 27.92 11.1328C27.92 10.3955 28.046 9.76549 28.298 9.24283C28.55 8.72016 28.9 8.31416 29.348 8.02483C29.8054 7.73549 30.3327 7.59083 30.93 7.59083C31.5274 7.59083 32.0407 7.74016 32.47 8.03883C32.9087 8.32816 33.2027 8.72016 33.352 9.21483H33.198V5.29483C33.198 5.06149 33.2587 4.88416 33.38 4.76283C33.5014 4.64149 33.674 4.58083 33.898 4.58083C34.122 4.58083 34.2947 4.64149 34.416 4.76283C34.5467 4.88416 34.612 5.06149 34.612 5.29483V13.9328C34.612 14.1568 34.5514 14.3342 34.43 14.4648C34.3087 14.5862 34.136 14.6468 33.912 14.6468C33.688 14.6468 33.5154 14.5862 33.394 14.4648C33.2727 14.3342 33.212 14.1568 33.212 13.9328V12.7008L33.366 13.0088C33.2167 13.5128 32.9227 13.9188 32.484 14.2268C32.0547 14.5255 31.5367 14.6748 30.93 14.6748ZM31.294 13.5828C31.6767 13.5828 32.0127 13.4895 32.302 13.3028C32.5914 13.1162 32.8154 12.8408 32.974 12.4768C33.142 12.1128 33.226 11.6648 33.226 11.1328C33.226 10.3302 33.0487 9.72349 32.694 9.31283C32.3394 8.90216 31.8727 8.69683 31.294 8.69683C30.902 8.69683 30.5614 8.79016 30.272 8.97683C29.9827 9.15416 29.754 9.42483 29.586 9.78883C29.4274 10.1528 29.348 10.6008 29.348 11.1328C29.348 11.9262 29.5254 12.5328 29.88 12.9528C30.2347 13.3728 30.706 13.5828 31.294 13.5828ZM37.2975 14.6328C37.0735 14.6328 36.9008 14.5675 36.7795 14.4368C36.6582 14.2968 36.5975 14.1055 36.5975 13.8628V8.40283C36.5975 8.16016 36.6582 7.97349 36.7795 7.84283C36.9008 7.71216 37.0735 7.64683 37.2975 7.64683C37.5215 7.64683 37.6942 7.71216 37.8155 7.84283C37.9462 7.97349 38.0115 8.16016 38.0115 8.40283V13.8628C38.0115 14.1055 37.9508 14.2968 37.8295 14.4368C37.7082 14.5675 37.5308 14.6328 37.2975 14.6328ZM37.2975 6.19083C37.0175 6.19083 36.7982 6.12083 36.6395 5.98083C36.4902 5.84083 36.4155 5.64483 36.4155 5.39283C36.4155 5.13149 36.4902 4.93549 36.6395 4.80483C36.7982 4.66483 37.0175 4.59483 37.2975 4.59483C37.5775 4.59483 37.7922 4.66483 37.9415 4.80483C38.1002 4.93549 38.1795 5.13149 38.1795 5.39283C38.1795 5.64483 38.1002 5.84083 37.9415 5.98083C37.7922 6.12083 37.5775 6.19083 37.2975 6.19083ZM40.7298 14.6468C40.5058 14.6468 40.3331 14.5862 40.2118 14.4648C40.0905 14.3342 40.0298 14.1568 40.0298 13.9328V8.33283C40.0298 8.09949 40.0905 7.92216 40.2118 7.80083C40.3331 7.67949 40.5011 7.61883 40.7158 7.61883C40.9398 7.61883 41.1078 7.67949 41.2198 7.80083C41.3411 7.92216 41.4018 8.09949 41.4018 8.33283V9.48083L41.2478 9.17283C41.4345 8.67816 41.7238 8.29083 42.1158 8.01083C42.5078 7.73083 42.9791 7.59083 43.5298 7.59083C44.0991 7.59083 44.5611 7.72616 44.9158 7.99683C45.2705 8.26749 45.5131 8.68283 45.6438 9.24283H45.4478C45.6251 8.72949 45.9285 8.32816 46.3578 8.03883C46.7871 7.74016 47.2865 7.59083 47.8558 7.59083C48.3785 7.59083 48.8078 7.69349 49.1438 7.89883C49.4798 8.09483 49.7318 8.39816 49.8998 8.80883C50.0678 9.21016 50.1518 9.71883 50.1518 10.3348V13.9328C50.1518 14.1568 50.0865 14.3342 49.9558 14.4648C49.8345 14.5862 49.6618 14.6468 49.4378 14.6468C49.2138 14.6468 49.0411 14.5862 48.9198 14.4648C48.7985 14.3342 48.7378 14.1568 48.7378 13.9328V10.4048C48.7378 9.82616 48.6351 9.40149 48.4298 9.13083C48.2338 8.86016 47.9071 8.72483 47.4498 8.72483C46.9365 8.72483 46.5305 8.90216 46.2318 9.25683C45.9331 9.61149 45.7838 10.1015 45.7838 10.7268V13.9328C45.7838 14.1568 45.7231 14.3342 45.6018 14.4648C45.4805 14.5862 45.3078 14.6468 45.0838 14.6468C44.8598 14.6468 44.6825 14.5862 44.5518 14.4648C44.4305 14.3342 44.3698 14.1568 44.3698 13.9328V10.4048C44.3698 9.82616 44.2718 9.40149 44.0758 9.13083C43.8798 8.86016 43.5531 8.72483 43.0958 8.72483C42.5825 8.72483 42.1765 8.90216 41.8778 9.25683C41.5885 9.61149 41.4438 10.1015 41.4438 10.7268V13.9328C41.4438 14.4088 41.2058 14.6468 40.7298 14.6468ZM52.8288 17.1668C52.6048 17.1668 52.4321 17.1062 52.3108 16.9848C52.1894 16.8635 52.1288 16.6862 52.1288 16.4528V8.33283C52.1288 8.09949 52.1894 7.92216 52.3108 7.80083C52.4321 7.67949 52.6001 7.61883 52.8148 7.61883C53.0388 7.61883 53.2114 7.67949 53.3328 7.80083C53.4541 7.92216 53.5148 8.09949 53.5148 8.33283V9.55083L53.3608 9.25683C53.5101 8.75283 53.8041 8.35149 54.2428 8.05283C54.6814 7.74483 55.1994 7.59083 55.7968 7.59083C56.4034 7.59083 56.9308 7.73549 57.3788 8.02483C57.8361 8.31416 58.1861 8.72016 58.4288 9.24283C58.6808 9.76549 58.8068 10.3955 58.8068 11.1328C58.8068 11.8515 58.6808 12.4815 58.4288 13.0228C58.1861 13.5548 57.8408 13.9655 57.3928 14.2548C56.9448 14.5348 56.4128 14.6748 55.7968 14.6748C55.2088 14.6748 54.6954 14.5255 54.2568 14.2268C53.8181 13.9282 53.5241 13.5315 53.3748 13.0368H53.5428V16.4528C53.5428 16.6862 53.4774 16.8635 53.3468 16.9848C53.2254 17.1062 53.0528 17.1668 52.8288 17.1668ZM55.4468 13.5828C55.8388 13.5828 56.1794 13.4895 56.4688 13.3028C56.7581 13.1162 56.9821 12.8408 57.1408 12.4768C57.2994 12.1128 57.3788 11.6648 57.3788 11.1328C57.3788 10.3302 57.2014 9.72349 56.8468 9.31283C56.5014 8.90216 56.0348 8.69683 55.4468 8.69683C55.0641 8.69683 54.7234 8.79016 54.4248 8.97683C54.1354 9.15416 53.9114 9.42483 53.7528 9.78883C53.5941 10.1528 53.5148 10.6008 53.5148 11.1328C53.5148 11.9262 53.6921 12.5328 54.0468 12.9528C54.4014 13.3728 54.8681 13.5828 55.4468 13.5828ZM62.5983 14.6748C61.8703 14.6748 61.3196 14.4648 60.9463 14.0448C60.5823 13.6155 60.4003 12.9995 60.4003 12.1968V5.29483C60.4003 5.06149 60.4609 4.88416 60.5823 4.76283C60.7036 4.64149 60.8763 4.58083 61.1003 4.58083C61.3243 4.58083 61.4969 4.64149 61.6183 4.76283C61.7489 4.88416 61.8143 5.06149 61.8143 5.29483V12.1128C61.8143 12.5795 61.9076 12.9295 62.0943 13.1628C62.2903 13.3868 62.5703 13.4988 62.9343 13.4988C63.0183 13.4988 63.0929 13.4988 63.1583 13.4988C63.2236 13.4895 63.2889 13.4802 63.3543 13.4708C63.4663 13.4615 63.5456 13.4942 63.5923 13.5688C63.6389 13.6342 63.6623 13.7742 63.6623 13.9888C63.6623 14.1848 63.6203 14.3388 63.5363 14.4508C63.4523 14.5535 63.3169 14.6188 63.1303 14.6468C63.0463 14.6562 62.9576 14.6608 62.8643 14.6608C62.7709 14.6702 62.6823 14.6748 62.5983 14.6748ZM67.8172 14.6748C67.0705 14.6748 66.4265 14.5348 65.8852 14.2548C65.3532 13.9655 64.9379 13.5595 64.6392 13.0368C64.3499 12.5048 64.2052 11.8748 64.2052 11.1468C64.2052 10.4375 64.3499 9.81683 64.6392 9.28483C64.9285 8.75283 65.3252 8.33749 65.8292 8.03883C66.3332 7.74016 66.9072 7.59083 67.5512 7.59083C68.0272 7.59083 68.4519 7.67016 68.8252 7.82883C69.1985 7.97816 69.5159 8.20216 69.7772 8.50083C70.0479 8.79016 70.2485 9.14483 70.3792 9.56483C70.5192 9.98483 70.5892 10.4562 70.5892 10.9788C70.5892 11.1375 70.5425 11.2588 70.4492 11.3428C70.3559 11.4175 70.2159 11.4548 70.0292 11.4548H65.3252V10.5868H69.6372L69.3992 10.7828C69.3992 10.3162 69.3292 9.91949 69.1892 9.59283C69.0585 9.26616 68.8579 9.01883 68.5872 8.85083C68.3259 8.67349 67.9992 8.58483 67.6072 8.58483C67.1685 8.58483 66.7952 8.68749 66.4872 8.89283C66.1885 9.09816 65.9599 9.38283 65.8012 9.74683C65.6425 10.1108 65.5632 10.5355 65.5632 11.0208V11.1048C65.5632 11.9262 65.7545 12.5468 66.1372 12.9668C66.5292 13.3775 67.0939 13.5828 67.8312 13.5828C68.1112 13.5828 68.4052 13.5455 68.7132 13.4708C69.0305 13.3962 69.3292 13.2702 69.6092 13.0928C69.7679 12.9995 69.9079 12.9575 70.0292 12.9668C70.1599 12.9762 70.2625 13.0182 70.3372 13.0928C70.4212 13.1675 70.4725 13.2608 70.4912 13.3728C70.5099 13.4848 70.4912 13.6015 70.4352 13.7228C70.3792 13.8348 70.2812 13.9375 70.1412 14.0308C69.8239 14.2455 69.4552 14.4088 69.0352 14.5208C68.6152 14.6235 68.2092 14.6748 67.8172 14.6748ZM72.8307 14.6468C72.6067 14.6468 72.4341 14.5862 72.3127 14.4648C72.1914 14.3342 72.1307 14.1568 72.1307 13.9328V8.33283C72.1307 8.09949 72.1914 7.92216 72.3127 7.80083C72.4341 7.67949 72.6021 7.61883 72.8167 7.61883C73.0407 7.61883 73.2087 7.67949 73.3207 7.80083C73.4421 7.92216 73.5027 8.09949 73.5027 8.33283V9.42483L73.3487 9.17283C73.5541 8.65016 73.8761 8.25816 74.3147 7.99683C74.7534 7.72616 75.2574 7.59083 75.8267 7.59083C76.3681 7.59083 76.8161 7.69349 77.1707 7.89883C77.5347 8.09483 77.8054 8.39816 77.9827 8.80883C78.1601 9.21016 78.2487 9.71883 78.2487 10.3348V13.9328C78.2487 14.1568 78.1881 14.3342 78.0667 14.4648C77.9454 14.5862 77.7727 14.6468 77.5487 14.6468C77.3154 14.6468 77.1381 14.5862 77.0167 14.4648C76.8954 14.3342 76.8347 14.1568 76.8347 13.9328V10.4188C76.8347 9.83083 76.7181 9.40149 76.4847 9.13083C76.2607 8.86016 75.9061 8.72483 75.4207 8.72483C74.8514 8.72483 74.3941 8.90216 74.0487 9.25683C73.7127 9.61149 73.5447 10.0875 73.5447 10.6848V13.9328C73.5447 14.4088 73.3067 14.6468 72.8307 14.6468ZM83.1091 14.6748C82.5491 14.6748 82.0778 14.5768 81.6951 14.3808C81.3125 14.1848 81.0278 13.8955 80.8411 13.5128C80.6545 13.1302 80.5611 12.6635 80.5611 12.1128V8.80883H79.7211C79.5345 8.80883 79.3898 8.76216 79.2871 8.66883C79.1845 8.56616 79.1331 8.43083 79.1331 8.26283C79.1331 8.08549 79.1845 7.95016 79.2871 7.85683C79.3898 7.76349 79.5345 7.71683 79.7211 7.71683H80.5611V6.27483C80.5611 6.04149 80.6218 5.86416 80.7431 5.74283C80.8738 5.62149 81.0511 5.56083 81.2751 5.56083C81.4991 5.56083 81.6718 5.62149 81.7931 5.74283C81.9145 5.86416 81.9751 6.04149 81.9751 6.27483V7.71683H83.6131C83.7998 7.71683 83.9445 7.76349 84.0471 7.85683C84.1498 7.95016 84.2011 8.08549 84.2011 8.26283C84.2011 8.43083 84.1498 8.56616 84.0471 8.66883C83.9445 8.76216 83.7998 8.80883 83.6131 8.80883H81.9751V12.0008C81.9751 12.4955 82.0778 12.8688 82.2831 13.1208C82.4978 13.3728 82.8431 13.4988 83.3191 13.4988C83.4871 13.4988 83.6318 13.4848 83.7531 13.4568C83.8838 13.4195 83.9911 13.3962 84.0751 13.3868C84.1778 13.3868 84.2618 13.4242 84.3271 13.4988C84.3925 13.5642 84.4251 13.6948 84.4251 13.8908C84.4251 14.0308 84.3971 14.1615 84.3411 14.2828C84.2945 14.4042 84.2058 14.4835 84.0751 14.5208C83.9631 14.5582 83.8091 14.5908 83.6131 14.6188C83.4265 14.6562 83.2585 14.6748 83.1091 14.6748ZM88.448 14.6748C87.7014 14.6748 87.0574 14.5348 86.516 14.2548C85.984 13.9655 85.5687 13.5595 85.27 13.0368C84.9807 12.5048 84.836 11.8748 84.836 11.1468C84.836 10.4375 84.9807 9.81683 85.27 9.28483C85.5594 8.75283 85.956 8.33749 86.46 8.03883C86.964 7.74016 87.538 7.59083 88.182 7.59083C88.658 7.59083 89.0827 7.67016 89.456 7.82883C89.8294 7.97816 90.1467 8.20216 90.408 8.50083C90.6787 8.79016 90.8794 9.14483 91.01 9.56483C91.15 9.98483 91.22 10.4562 91.22 10.9788C91.22 11.1375 91.1734 11.2588 91.08 11.3428C90.9867 11.4175 90.8467 11.4548 90.66 11.4548H85.956V10.5868H90.268L90.03 10.7828C90.03 10.3162 89.96 9.91949 89.82 9.59283C89.6894 9.26616 89.4887 9.01883 89.218 8.85083C88.9567 8.67349 88.63 8.58483 88.238 8.58483C87.7994 8.58483 87.426 8.68749 87.118 8.89283C86.8194 9.09816 86.5907 9.38283 86.432 9.74683C86.2734 10.1108 86.194 10.5355 86.194 11.0208V11.1048C86.194 11.9262 86.3854 12.5468 86.768 12.9668C87.16 13.3775 87.7247 13.5828 88.462 13.5828C88.742 13.5828 89.036 13.5455 89.344 13.4708C89.6614 13.3962 89.96 13.2702 90.24 13.0928C90.3987 12.9995 90.5387 12.9575 90.66 12.9668C90.7907 12.9762 90.8934 13.0182 90.968 13.0928C91.052 13.1675 91.1034 13.2608 91.122 13.3728C91.1407 13.4848 91.122 13.6015 91.066 13.7228C91.01 13.8348 90.912 13.9375 90.772 14.0308C90.4547 14.2455 90.086 14.4088 89.666 14.5208C89.246 14.6235 88.84 14.6748 88.448 14.6748Z" fill="#971D1D"/>
</svg>
