<svg width="67" height="20" viewBox="0 0 67 20" fill="none" xmlns="http://www.w3.org/2000/svg">
<rect y="0.890625" width="67" height="19" rx="8" fill="#EEF6F6"/>
<path d="M19.376 14.9886C19.1427 14.9886 18.9607 14.9233 18.83 14.7926C18.7087 14.662 18.648 14.48 18.648 14.2466V5.76262C18.648 5.51996 18.7133 5.33796 18.844 5.21662C18.9747 5.08596 19.1567 5.02062 19.39 5.02062H22.736C23.8 5.02062 24.6213 5.28662 25.2 5.81862C25.7787 6.34129 26.068 7.07862 26.068 8.03062C26.068 8.99196 25.7787 9.73862 25.2 10.2706C24.6213 10.7933 23.8 11.0546 22.736 11.0546H20.104V14.2466C20.104 14.48 20.0433 14.662 19.922 14.7926C19.8007 14.9233 19.6187 14.9886 19.376 14.9886ZM20.104 9.89262H22.526C23.226 9.89262 23.7533 9.73862 24.108 9.43062C24.472 9.11329 24.654 8.64662 24.654 8.03062C24.654 7.42396 24.472 6.96662 24.108 6.65863C23.7533 6.34129 23.226 6.18262 22.526 6.18262H20.104V9.89262ZM29.3186 15.0166C28.8426 15.0166 28.4133 14.9233 28.0306 14.7366C27.6573 14.55 27.3633 14.298 27.1486 13.9806C26.934 13.6633 26.8266 13.304 26.8266 12.9026C26.8266 12.3986 26.9526 12.002 27.2046 11.7126C27.466 11.414 27.8906 11.204 28.4786 11.0826C29.076 10.952 29.8786 10.8866 30.8866 10.8866H31.5446V11.7546H30.9006C30.2286 11.7546 29.6966 11.7873 29.3046 11.8526C28.9126 11.918 28.6326 12.03 28.4646 12.1886C28.306 12.338 28.2266 12.548 28.2266 12.8186C28.2266 13.1733 28.348 13.4626 28.5906 13.6866C28.8333 13.9013 29.1693 14.0086 29.5986 14.0086C29.944 14.0086 30.2473 13.9293 30.5086 13.7706C30.77 13.6026 30.9753 13.3786 31.1246 13.0986C31.2833 12.8186 31.3626 12.4966 31.3626 12.1326V10.5226C31.3626 9.99062 31.2506 9.60796 31.0266 9.37462C30.8026 9.14129 30.434 9.02462 29.9206 9.02462C29.622 9.02462 29.3093 9.06196 28.9826 9.13662C28.6653 9.21129 28.334 9.33729 27.9886 9.51462C27.83 9.58929 27.6946 9.61262 27.5826 9.58462C27.4706 9.55662 27.382 9.49596 27.3166 9.40262C27.2513 9.29996 27.214 9.19262 27.2046 9.08062C27.2046 8.95929 27.2326 8.84262 27.2886 8.73062C27.354 8.61862 27.4613 8.53462 27.6106 8.47862C28.0213 8.28262 28.4273 8.14262 28.8286 8.05862C29.23 7.97462 29.608 7.93262 29.9626 7.93262C30.588 7.93262 31.1013 8.03062 31.5026 8.22662C31.9133 8.42262 32.2166 8.72129 32.4126 9.12262C32.6086 9.52396 32.7066 10.042 32.7066 10.6766V14.2746C32.7066 14.4986 32.6506 14.676 32.5386 14.8066C32.4266 14.928 32.2633 14.9886 32.0486 14.9886C31.8433 14.9886 31.68 14.928 31.5586 14.8066C31.4373 14.676 31.3766 14.4986 31.3766 14.2746V13.3646H31.5026C31.428 13.71 31.288 14.0086 31.0826 14.2606C30.8866 14.5033 30.6393 14.69 30.3406 14.8206C30.042 14.9513 29.7013 15.0166 29.3186 15.0166ZM37.7482 17.5366C37.2442 17.5366 36.7542 17.4853 36.2782 17.3826C35.8115 17.28 35.3868 17.112 35.0042 16.8786C34.8642 16.804 34.7708 16.7106 34.7242 16.5986C34.6775 16.496 34.6635 16.3886 34.6822 16.2766C34.7102 16.1646 34.7615 16.0666 34.8362 15.9826C34.9108 15.8986 34.9995 15.8426 35.1022 15.8146C35.2142 15.7866 35.3308 15.8053 35.4522 15.8706C35.8628 16.0946 36.2502 16.244 36.6142 16.3186C36.9875 16.4026 37.3328 16.4446 37.6502 16.4446C38.3035 16.4446 38.7935 16.2766 39.1202 15.9406C39.4468 15.614 39.6102 15.1286 39.6102 14.4846V13.0566H39.7362C39.5962 13.57 39.3022 13.976 38.8542 14.2746C38.4062 14.5733 37.8882 14.7226 37.3002 14.7226C36.6842 14.7226 36.1475 14.5826 35.6902 14.3026C35.2328 14.0133 34.8782 13.6166 34.6262 13.1126C34.3742 12.5993 34.2482 12.002 34.2482 11.3206C34.2482 10.8073 34.3182 10.3453 34.4582 9.93462C34.6075 9.52396 34.8128 9.16929 35.0742 8.87062C35.3448 8.57196 35.6668 8.34329 36.0402 8.18462C36.4228 8.01662 36.8428 7.93262 37.3002 7.93262C37.8975 7.93262 38.4155 8.08196 38.8542 8.38062C39.3022 8.67929 39.5915 9.08529 39.7222 9.59862L39.5822 9.83662V8.67462C39.5822 8.44129 39.6428 8.26396 39.7642 8.14262C39.8948 8.02129 40.0675 7.96062 40.2822 7.96062C40.5062 7.96062 40.6788 8.02129 40.8002 8.14262C40.9215 8.26396 40.9822 8.44129 40.9822 8.67462V14.3166C40.9822 15.3806 40.7068 16.1833 40.1562 16.7246C39.6055 17.266 38.8028 17.5366 37.7482 17.5366ZM37.6362 13.6166C38.0468 13.6166 38.3968 13.5233 38.6862 13.3366C38.9755 13.15 39.1995 12.884 39.3582 12.5386C39.5168 12.1933 39.5962 11.7873 39.5962 11.3206C39.5962 10.6206 39.4188 10.0653 39.0642 9.65462C38.7188 9.24396 38.2428 9.03862 37.6362 9.03862C37.2348 9.03862 36.8895 9.13196 36.6002 9.31862C36.3108 9.50529 36.0822 9.77129 35.9142 10.1166C35.7555 10.4526 35.6762 10.854 35.6762 11.3206C35.6762 12.03 35.8535 12.59 36.2082 13.0006C36.5628 13.4113 37.0388 13.6166 37.6362 13.6166ZM45.1507 15.0166C44.6747 15.0166 44.2453 14.9233 43.8627 14.7366C43.4893 14.55 43.1953 14.298 42.9807 13.9806C42.766 13.6633 42.6587 13.304 42.6587 12.9026C42.6587 12.3986 42.7847 12.002 43.0367 11.7126C43.298 11.414 43.7227 11.204 44.3107 11.0826C44.908 10.952 45.7107 10.8866 46.7187 10.8866H47.3767V11.7546H46.7327C46.0607 11.7546 45.5287 11.7873 45.1367 11.8526C44.7447 11.918 44.4647 12.03 44.2967 12.1886C44.138 12.338 44.0587 12.548 44.0587 12.8186C44.0587 13.1733 44.18 13.4626 44.4227 13.6866C44.6653 13.9013 45.0013 14.0086 45.4307 14.0086C45.776 14.0086 46.0793 13.9293 46.3407 13.7706C46.602 13.6026 46.8073 13.3786 46.9567 13.0986C47.1153 12.8186 47.1947 12.4966 47.1947 12.1326V10.5226C47.1947 9.99062 47.0827 9.60796 46.8587 9.37462C46.6347 9.14129 46.266 9.02462 45.7527 9.02462C45.454 9.02462 45.1413 9.06196 44.8147 9.13662C44.4973 9.21129 44.166 9.33729 43.8207 9.51462C43.662 9.58929 43.5267 9.61262 43.4147 9.58462C43.3027 9.55662 43.214 9.49596 43.1487 9.40262C43.0833 9.29996 43.046 9.19262 43.0367 9.08062C43.0367 8.95929 43.0647 8.84262 43.1207 8.73062C43.186 8.61862 43.2933 8.53462 43.4427 8.47862C43.8533 8.28262 44.2593 8.14262 44.6607 8.05862C45.062 7.97462 45.44 7.93262 45.7947 7.93262C46.42 7.93262 46.9333 8.03062 47.3347 8.22662C47.7453 8.42262 48.0487 8.72129 48.2447 9.12262C48.4407 9.52396 48.5387 10.042 48.5387 10.6766V14.2746C48.5387 14.4986 48.4827 14.676 48.3707 14.8066C48.2587 14.928 48.0953 14.9886 47.8807 14.9886C47.6753 14.9886 47.512 14.928 47.3907 14.8066C47.2693 14.676 47.2087 14.4986 47.2087 14.2746V13.3646H47.3347C47.26 13.71 47.12 14.0086 46.9147 14.2606C46.7187 14.5033 46.4713 14.69 46.1727 14.8206C45.874 14.9513 45.5333 15.0166 45.1507 15.0166Z" fill="#1FA7AF"/>
</svg>
