<svg width="77" height="20" viewBox="0 0 77 20" fill="none" xmlns="http://www.w3.org/2000/svg">
<rect y="0.792969" width="77" height="19" rx="8" fill="#FCF6DC"/>
<path d="M9.876 14.891C9.64267 14.891 9.46067 14.8256 9.33 14.695C9.20867 14.5643 9.148 14.3823 9.148 14.149V5.66497C9.148 5.4223 9.21333 5.2403 9.344 5.11897C9.47467 4.9883 9.65667 4.92297 9.89 4.92297H13.236C14.3 4.92297 15.1213 5.18897 15.7 5.72097C16.2787 6.24364 16.568 6.98097 16.568 7.93297C16.568 8.8943 16.2787 9.64097 15.7 10.173C15.1213 10.6956 14.3 10.957 13.236 10.957H10.604V14.149C10.604 14.3823 10.5433 14.5643 10.422 14.695C10.3007 14.8256 10.1187 14.891 9.876 14.891ZM10.604 9.79497H13.026C13.726 9.79497 14.2533 9.64097 14.608 9.33297C14.972 9.01564 15.154 8.54897 15.154 7.93297C15.154 7.3263 14.972 6.86897 14.608 6.56097C14.2533 6.24364 13.726 6.08497 13.026 6.08497H10.604V9.79497ZM20.8543 14.919C20.1076 14.919 19.4636 14.779 18.9223 14.499C18.3903 14.2096 17.975 13.8036 17.6763 13.281C17.387 12.749 17.2423 12.119 17.2423 11.391C17.2423 10.6816 17.387 10.061 17.6763 9.52897C17.9656 8.99697 18.3623 8.58163 18.8663 8.28297C19.3703 7.9843 19.9443 7.83497 20.5883 7.83497C21.0643 7.83497 21.489 7.9143 21.8623 8.07297C22.2356 8.2223 22.553 8.4463 22.8143 8.74497C23.085 9.0343 23.2856 9.38897 23.4163 9.80897C23.5563 10.229 23.6263 10.7003 23.6263 11.223C23.6263 11.3816 23.5796 11.503 23.4863 11.587C23.393 11.6616 23.253 11.699 23.0663 11.699H18.3623V10.831H22.6743L22.4363 11.027C22.4363 10.5603 22.3663 10.1636 22.2263 9.83697C22.0956 9.5103 21.895 9.26297 21.6243 9.09497C21.363 8.91764 21.0363 8.82897 20.6443 8.82897C20.2056 8.82897 19.8323 8.93164 19.5243 9.13697C19.2256 9.3423 18.997 9.62697 18.8383 9.99097C18.6796 10.355 18.6003 10.7796 18.6003 11.265V11.349C18.6003 12.1703 18.7916 12.791 19.1743 13.211C19.5663 13.6216 20.131 13.827 20.8683 13.827C21.1483 13.827 21.4423 13.7896 21.7503 13.715C22.0676 13.6403 22.3663 13.5143 22.6463 13.337C22.805 13.2436 22.945 13.2016 23.0663 13.211C23.197 13.2203 23.2996 13.2623 23.3743 13.337C23.4583 13.4116 23.5096 13.505 23.5283 13.617C23.547 13.729 23.5283 13.8456 23.4723 13.967C23.4163 14.079 23.3183 14.1816 23.1783 14.275C22.861 14.4896 22.4923 14.653 22.0723 14.765C21.6523 14.8676 21.2463 14.919 20.8543 14.919ZM25.8678 14.891C25.6438 14.891 25.4712 14.8303 25.3498 14.709C25.2285 14.5783 25.1678 14.401 25.1678 14.177V8.57697C25.1678 8.34364 25.2285 8.1663 25.3498 8.04497C25.4712 7.92363 25.6392 7.86297 25.8538 7.86297C26.0778 7.86297 26.2458 7.92363 26.3578 8.04497C26.4792 8.1663 26.5398 8.34364 26.5398 8.57697V9.66897L26.3858 9.41697C26.5912 8.8943 26.9132 8.5023 27.3518 8.24097C27.7905 7.9703 28.2945 7.83497 28.8638 7.83497C29.4052 7.83497 29.8532 7.93764 30.2078 8.14297C30.5718 8.33897 30.8425 8.6423 31.0198 9.05297C31.1972 9.4543 31.2858 9.96297 31.2858 10.579V14.177C31.2858 14.401 31.2252 14.5783 31.1038 14.709C30.9825 14.8303 30.8098 14.891 30.5858 14.891C30.3525 14.891 30.1752 14.8303 30.0538 14.709C29.9325 14.5783 29.8718 14.401 29.8718 14.177V10.663C29.8718 10.075 29.7552 9.64564 29.5218 9.37497C29.2978 9.1043 28.9432 8.96897 28.4578 8.96897C27.8885 8.96897 27.4312 9.1463 27.0858 9.50097C26.7498 9.85564 26.5818 10.3316 26.5818 10.929V14.177C26.5818 14.653 26.3438 14.891 25.8678 14.891ZM35.8382 14.919C35.2409 14.919 34.7136 14.779 34.2562 14.499C33.8082 14.2096 33.4582 13.799 33.2062 13.267C32.9542 12.7256 32.8282 12.0956 32.8282 11.377C32.8282 10.6396 32.9542 10.0096 33.2062 9.48697C33.4582 8.9643 33.8082 8.5583 34.2562 8.26897C34.7136 7.97964 35.2409 7.83497 35.8382 7.83497C36.4356 7.83497 36.9489 7.9843 37.3782 8.28297C37.8169 8.5723 38.1109 8.9643 38.2602 9.45897H38.1062V5.53897C38.1062 5.30563 38.1669 5.1283 38.2882 5.00697C38.4096 4.88564 38.5822 4.82497 38.8062 4.82497C39.0302 4.82497 39.2029 4.88564 39.3242 5.00697C39.4549 5.1283 39.5202 5.30563 39.5202 5.53897V14.177C39.5202 14.401 39.4596 14.5783 39.3382 14.709C39.2169 14.8303 39.0442 14.891 38.8202 14.891C38.5962 14.891 38.4236 14.8303 38.3022 14.709C38.1809 14.5783 38.1202 14.401 38.1202 14.177V12.945L38.2742 13.253C38.1249 13.757 37.8309 14.163 37.3922 14.471C36.9629 14.7696 36.4449 14.919 35.8382 14.919ZM36.2022 13.827C36.5849 13.827 36.9209 13.7336 37.2102 13.547C37.4996 13.3603 37.7236 13.085 37.8822 12.721C38.0502 12.357 38.1342 11.909 38.1342 11.377C38.1342 10.5743 37.9569 9.96764 37.6022 9.55697C37.2476 9.1463 36.7809 8.94097 36.2022 8.94097C35.8102 8.94097 35.4696 9.0343 35.1802 9.22097C34.8909 9.3983 34.6622 9.66897 34.4942 10.033C34.3356 10.397 34.2562 10.845 34.2562 11.377C34.2562 12.1703 34.4336 12.777 34.7882 13.197C35.1429 13.617 35.6142 13.827 36.2022 13.827ZM44.7117 14.919C43.9651 14.919 43.3211 14.779 42.7797 14.499C42.2477 14.2096 41.8324 13.8036 41.5337 13.281C41.2444 12.749 41.0997 12.119 41.0997 11.391C41.0997 10.6816 41.2444 10.061 41.5337 9.52897C41.8231 8.99697 42.2197 8.58163 42.7237 8.28297C43.2277 7.9843 43.8017 7.83497 44.4457 7.83497C44.9217 7.83497 45.3464 7.9143 45.7197 8.07297C46.0931 8.2223 46.4104 8.4463 46.6717 8.74497C46.9424 9.0343 47.1431 9.38897 47.2737 9.80897C47.4137 10.229 47.4837 10.7003 47.4837 11.223C47.4837 11.3816 47.4371 11.503 47.3437 11.587C47.2504 11.6616 47.1104 11.699 46.9237 11.699H42.2197V10.831H46.5317L46.2937 11.027C46.2937 10.5603 46.2237 10.1636 46.0837 9.83697C45.9531 9.5103 45.7524 9.26297 45.4817 9.09497C45.2204 8.91764 44.8937 8.82897 44.5017 8.82897C44.0631 8.82897 43.6897 8.93164 43.3817 9.13697C43.0831 9.3423 42.8544 9.62697 42.6957 9.99097C42.5371 10.355 42.4577 10.7796 42.4577 11.265V11.349C42.4577 12.1703 42.6491 12.791 43.0317 13.211C43.4237 13.6216 43.9884 13.827 44.7257 13.827C45.0057 13.827 45.2997 13.7896 45.6077 13.715C45.9251 13.6403 46.2237 13.5143 46.5037 13.337C46.6624 13.2436 46.8024 13.2016 46.9237 13.211C47.0544 13.2203 47.1571 13.2623 47.2317 13.337C47.3157 13.4116 47.3671 13.505 47.3857 13.617C47.4044 13.729 47.3857 13.8456 47.3297 13.967C47.2737 14.079 47.1757 14.1816 47.0357 14.275C46.7184 14.4896 46.3497 14.653 45.9297 14.765C45.5097 14.8676 45.1037 14.919 44.7117 14.919ZM49.7253 14.891C49.5013 14.891 49.3286 14.8303 49.2073 14.709C49.0859 14.5783 49.0253 14.401 49.0253 14.177V8.57697C49.0253 8.34364 49.0859 8.1663 49.2073 8.04497C49.3286 7.92363 49.4966 7.86297 49.7113 7.86297C49.9353 7.86297 50.1033 7.92363 50.2153 8.04497C50.3366 8.1663 50.3973 8.34364 50.3973 8.57697V9.66897L50.2433 9.41697C50.4486 8.8943 50.7706 8.5023 51.2093 8.24097C51.6479 7.9703 52.1519 7.83497 52.7213 7.83497C53.2626 7.83497 53.7106 7.93764 54.0653 8.14297C54.4293 8.33897 54.6999 8.6423 54.8773 9.05297C55.0546 9.4543 55.1433 9.96297 55.1433 10.579V14.177C55.1433 14.401 55.0826 14.5783 54.9613 14.709C54.8399 14.8303 54.6673 14.891 54.4433 14.891C54.2099 14.891 54.0326 14.8303 53.9113 14.709C53.7899 14.5783 53.7293 14.401 53.7293 14.177V10.663C53.7293 10.075 53.6126 9.64564 53.3793 9.37497C53.1553 9.1043 52.8006 8.96897 52.3153 8.96897C51.7459 8.96897 51.2886 9.1463 50.9433 9.50097C50.6073 9.85564 50.4393 10.3316 50.4393 10.929V14.177C50.4393 14.653 50.2013 14.891 49.7253 14.891ZM60.0037 14.919C59.4437 14.919 58.9723 14.821 58.5897 14.625C58.207 14.429 57.9223 14.1396 57.7357 13.757C57.549 13.3743 57.4557 12.9076 57.4557 12.357V9.05297H56.6157C56.429 9.05297 56.2843 9.0063 56.1817 8.91297C56.079 8.8103 56.0277 8.67497 56.0277 8.50697C56.0277 8.32964 56.079 8.1943 56.1817 8.10097C56.2843 8.00764 56.429 7.96097 56.6157 7.96097H57.4557V6.51897C57.4557 6.28563 57.5163 6.1083 57.6377 5.98697C57.7683 5.86564 57.9457 5.80497 58.1697 5.80497C58.3937 5.80497 58.5663 5.86564 58.6877 5.98697C58.809 6.1083 58.8697 6.28563 58.8697 6.51897V7.96097H60.5077C60.6943 7.96097 60.839 8.00764 60.9417 8.10097C61.0443 8.1943 61.0957 8.32964 61.0957 8.50697C61.0957 8.67497 61.0443 8.8103 60.9417 8.91297C60.839 9.0063 60.6943 9.05297 60.5077 9.05297H58.8697V12.245C58.8697 12.7396 58.9723 13.113 59.1777 13.365C59.3923 13.617 59.7377 13.743 60.2137 13.743C60.3817 13.743 60.5263 13.729 60.6477 13.701C60.7783 13.6636 60.8857 13.6403 60.9697 13.631C61.0723 13.631 61.1563 13.6683 61.2217 13.743C61.287 13.8083 61.3197 13.939 61.3197 14.135C61.3197 14.275 61.2917 14.4056 61.2357 14.527C61.189 14.6483 61.1003 14.7276 60.9697 14.765C60.8577 14.8023 60.7037 14.835 60.5077 14.863C60.321 14.9003 60.153 14.919 60.0037 14.919ZM65.3426 14.919C64.5959 14.919 63.9519 14.779 63.4106 14.499C62.8786 14.2096 62.4632 13.8036 62.1646 13.281C61.8752 12.749 61.7306 12.119 61.7306 11.391C61.7306 10.6816 61.8752 10.061 62.1646 9.52897C62.4539 8.99697 62.8506 8.58163 63.3546 8.28297C63.8586 7.9843 64.4326 7.83497 65.0766 7.83497C65.5526 7.83497 65.9772 7.9143 66.3506 8.07297C66.7239 8.2223 67.0412 8.4463 67.3026 8.74497C67.5732 9.0343 67.7739 9.38897 67.9046 9.80897C68.0446 10.229 68.1146 10.7003 68.1146 11.223C68.1146 11.3816 68.0679 11.503 67.9746 11.587C67.8812 11.6616 67.7412 11.699 67.5546 11.699H62.8506V10.831H67.1626L66.9246 11.027C66.9246 10.5603 66.8546 10.1636 66.7146 9.83697C66.5839 9.5103 66.3832 9.26297 66.1126 9.09497C65.8512 8.91764 65.5246 8.82897 65.1326 8.82897C64.6939 8.82897 64.3206 8.93164 64.0126 9.13697C63.7139 9.3423 63.4852 9.62697 63.3266 9.99097C63.1679 10.355 63.0886 10.7796 63.0886 11.265V11.349C63.0886 12.1703 63.2799 12.791 63.6626 13.211C64.0546 13.6216 64.6192 13.827 65.3566 13.827C65.6366 13.827 65.9306 13.7896 66.2386 13.715C66.5559 13.6403 66.8546 13.5143 67.1346 13.337C67.2932 13.2436 67.4332 13.2016 67.5546 13.211C67.6852 13.2203 67.7879 13.2623 67.8626 13.337C67.9466 13.4116 67.9979 13.505 68.0166 13.617C68.0352 13.729 68.0166 13.8456 67.9606 13.967C67.9046 14.079 67.8066 14.1816 67.6666 14.275C67.3492 14.4896 66.9806 14.653 66.5606 14.765C66.1406 14.8676 65.7346 14.919 65.3426 14.919Z" fill="#C5A605"/>
</svg>
