<svg width="68" height="19" viewBox="0 0 68 19" fill="none" xmlns="http://www.w3.org/2000/svg">
<rect width="68" height="19" rx="8" fill="#FFEFEF"/>
<path d="M16.858 4.438C16.9793 4.17667 17.18 4.046 17.46 4.046C17.6467 4.046 17.8147 4.11133 17.964 4.242C18.1133 4.36333 18.188 4.51267 18.188 4.69C18.188 4.75533 18.1647 4.844 18.118 4.956L14.17 13.608C14.1047 13.7573 14.002 13.874 13.862 13.958C13.722 14.042 13.5727 14.084 13.414 14.084C13.2553 14.084 13.1013 14.042 12.952 13.958C12.812 13.874 12.7093 13.7573 12.644 13.608L8.71 4.956C8.66333 4.844 8.64 4.75533 8.64 4.69C8.64 4.50333 8.71467 4.34933 8.864 4.228C9.02267 4.10667 9.19533 4.046 9.382 4.046C9.67133 4.046 9.87667 4.17667 9.998 4.438L13.428 12.124L16.858 4.438ZM23.8514 12.278C23.9821 12.278 24.0894 12.3293 24.1734 12.432C24.2574 12.5347 24.2994 12.6653 24.2994 12.824C24.2994 13.0947 24.1314 13.3233 23.7954 13.51C23.4688 13.6967 23.1094 13.8413 22.7174 13.944C22.3348 14.0467 21.9661 14.098 21.6114 14.098C20.5288 14.098 19.6748 13.7853 19.0494 13.16C18.4241 12.5253 18.1114 11.662 18.1114 10.57C18.1114 9.87 18.2468 9.24933 18.5174 8.708C18.7974 8.16667 19.1848 7.74667 19.6794 7.448C20.1834 7.14933 20.7528 7 21.3874 7C22.3021 7 23.0254 7.294 23.5574 7.882C24.0894 8.47 24.3554 9.26333 24.3554 10.262C24.3554 10.6353 24.1874 10.822 23.8514 10.822H19.5254C19.6188 12.2687 20.3141 12.992 21.6114 12.992C21.9568 12.992 22.2554 12.9453 22.5074 12.852C22.7594 12.7587 23.0254 12.6373 23.3054 12.488C23.3334 12.4693 23.4081 12.432 23.5294 12.376C23.6601 12.3107 23.7674 12.278 23.8514 12.278ZM21.4154 8.036C20.8741 8.036 20.4401 8.20867 20.1134 8.554C19.7868 8.89933 19.5908 9.38467 19.5254 10.01H23.1374C23.1094 9.37533 22.9461 8.89 22.6474 8.554C22.3581 8.20867 21.9474 8.036 21.4154 8.036ZM29.5956 7C31.2289 7 32.0456 7.91933 32.0456 9.758V13.398C32.0456 13.6127 31.9803 13.7807 31.8496 13.902C31.7283 14.014 31.5556 14.07 31.3316 14.07C31.1169 14.07 30.9443 14.0093 30.8136 13.888C30.6923 13.7667 30.6316 13.6033 30.6316 13.398V9.828C30.6316 9.24933 30.5149 8.82467 30.2816 8.554C30.0576 8.28333 29.7029 8.148 29.2176 8.148C28.6483 8.148 28.1909 8.32533 27.8456 8.68C27.5003 9.03467 27.3276 9.51067 27.3276 10.108V13.398C27.3276 13.6033 27.2623 13.7667 27.1316 13.888C27.0103 14.0093 26.8423 14.07 26.6276 14.07C26.4129 14.07 26.2403 14.0093 26.1096 13.888C25.9789 13.7667 25.9136 13.6033 25.9136 13.398V7.7C25.9136 7.504 25.9789 7.34533 26.1096 7.224C26.2496 7.09333 26.4223 7.028 26.6276 7.028C26.8329 7.028 26.9963 7.08867 27.1176 7.21C27.2389 7.33133 27.2996 7.49 27.2996 7.686V8.26C27.5236 7.84933 27.8363 7.53667 28.2376 7.322C28.6389 7.10733 29.0916 7 29.5956 7ZM36.906 14.098C36.2433 14.098 35.66 13.9533 35.156 13.664C34.6613 13.3747 34.274 12.964 33.994 12.432C33.7233 11.9 33.588 11.284 33.588 10.584C33.588 9.87467 33.728 9.24933 34.008 8.708C34.2973 8.16667 34.6987 7.74667 35.212 7.448C35.7253 7.14933 36.3133 7 36.976 7C37.3307 7 37.6853 7.05133 38.04 7.154C38.404 7.25667 38.726 7.39667 39.006 7.574C39.3047 7.77933 39.454 8.01733 39.454 8.288C39.454 8.44667 39.412 8.582 39.328 8.694C39.244 8.79667 39.1367 8.848 39.006 8.848C38.922 8.848 38.838 8.82933 38.754 8.792C38.67 8.74533 38.5627 8.68 38.432 8.596C38.1987 8.44667 37.9793 8.33467 37.774 8.26C37.578 8.176 37.34 8.134 37.06 8.134C36.4253 8.134 35.9307 8.34867 35.576 8.778C35.2307 9.20733 35.058 9.80467 35.058 10.57C35.058 11.3353 35.2307 11.928 35.576 12.348C35.9213 12.7587 36.4113 12.964 37.046 12.964C37.326 12.964 37.5733 12.922 37.788 12.838C38.0027 12.754 38.222 12.642 38.446 12.502C38.5487 12.4367 38.6513 12.3807 38.754 12.334C38.8567 12.2873 38.95 12.264 39.034 12.264C39.1647 12.264 39.272 12.32 39.356 12.432C39.44 12.5347 39.482 12.6653 39.482 12.824C39.482 12.9547 39.4447 13.076 39.37 13.188C39.3047 13.2907 39.188 13.398 39.02 13.51C38.74 13.6967 38.4133 13.8413 38.04 13.944C37.6667 14.0467 37.2887 14.098 36.906 14.098ZM41.4616 14.07C41.2562 14.07 41.0836 14.014 40.9436 13.902C40.8129 13.79 40.7476 13.622 40.7476 13.398V7.714C40.7476 7.49 40.8129 7.322 40.9436 7.21C41.0836 7.08867 41.2562 7.028 41.4616 7.028C41.6669 7.028 41.8349 7.08867 41.9656 7.21C42.0962 7.322 42.1616 7.49 42.1616 7.714V13.398C42.1616 13.622 42.0962 13.79 41.9656 13.902C41.8349 14.014 41.6669 14.07 41.4616 14.07ZM41.4616 5.656C41.1909 5.656 40.9762 5.58133 40.8176 5.432C40.6589 5.28267 40.5796 5.08667 40.5796 4.844C40.5796 4.60133 40.6589 4.41 40.8176 4.27C40.9762 4.12067 41.1909 4.046 41.4616 4.046C41.7229 4.046 41.9329 4.12067 42.0916 4.27C42.2596 4.41 42.3436 4.60133 42.3436 4.844C42.3436 5.08667 42.2642 5.28267 42.1056 5.432C41.9469 5.58133 41.7322 5.656 41.4616 5.656ZM49.7242 4.06C49.9389 4.06 50.1115 4.12067 50.2422 4.242C50.3729 4.36333 50.4382 4.52667 50.4382 4.732V13.384C50.4382 13.5987 50.3729 13.7667 50.2422 13.888C50.1209 14.0093 49.9529 14.07 49.7382 14.07C49.5235 14.07 49.3509 14.0093 49.2202 13.888C49.0989 13.7667 49.0382 13.5987 49.0382 13.384V12.824C48.8329 13.2347 48.5342 13.552 48.1422 13.776C47.7502 13.9907 47.2975 14.098 46.7842 14.098C46.1962 14.098 45.6689 13.9487 45.2022 13.65C44.7449 13.3513 44.3855 12.9313 44.1242 12.39C43.8722 11.8487 43.7462 11.228 43.7462 10.528C43.7462 9.81867 43.8722 9.198 44.1242 8.666C44.3855 8.134 44.7449 7.72333 45.2022 7.434C45.6595 7.14467 46.1869 7 46.7842 7C47.2975 7 47.7455 7.112 48.1282 7.336C48.5202 7.55067 48.8189 7.85867 49.0242 8.26V4.704C49.0242 4.508 49.0849 4.354 49.2062 4.242C49.3369 4.12067 49.5095 4.06 49.7242 4.06ZM47.1202 12.978C47.7269 12.978 48.1982 12.768 48.5342 12.348C48.8702 11.928 49.0382 11.3307 49.0382 10.556C49.0382 9.78133 48.8702 9.184 48.5342 8.764C48.2075 8.344 47.7362 8.134 47.1202 8.134C46.5042 8.134 46.0235 8.344 45.6782 8.764C45.3422 9.17467 45.1742 9.76267 45.1742 10.528C45.1742 11.2933 45.3469 11.8953 45.6922 12.334C46.0375 12.7633 46.5135 12.978 47.1202 12.978ZM55.2797 7C56.185 7 56.857 7.22867 57.2957 7.686C57.7437 8.14333 57.9677 8.83867 57.9677 9.772V13.398C57.9677 13.6127 57.907 13.7807 57.7857 13.902C57.6644 14.014 57.4964 14.07 57.2817 14.07C57.0764 14.07 56.913 14.0093 56.7917 13.888C56.6704 13.7667 56.6097 13.6033 56.6097 13.398V12.88C56.4324 13.272 56.1664 13.5753 55.8117 13.79C55.4664 13.9953 55.0604 14.098 54.5937 14.098C54.1457 14.098 53.735 14.0093 53.3617 13.832C52.9977 13.6453 52.7084 13.3933 52.4937 13.076C52.279 12.7587 52.1717 12.3993 52.1717 11.998C52.1624 11.494 52.2884 11.102 52.5497 10.822C52.811 10.5327 53.2357 10.3273 53.8237 10.206C54.4117 10.0753 55.2284 10.01 56.2737 10.01H56.5957V9.604C56.5957 9.08133 56.4884 8.70333 56.2737 8.47C56.059 8.23667 55.7137 8.12 55.2377 8.12C54.911 8.12 54.603 8.162 54.3137 8.246C54.0244 8.33 53.707 8.45133 53.3617 8.61C53.1097 8.75 52.9324 8.82 52.8297 8.82C52.6897 8.82 52.573 8.76867 52.4797 8.666C52.3957 8.56333 52.3537 8.43267 52.3537 8.274C52.3537 8.134 52.391 8.01267 52.4657 7.91C52.5497 7.798 52.6804 7.69067 52.8577 7.588C53.1844 7.41067 53.567 7.27067 54.0057 7.168C54.4444 7.056 54.869 7 55.2797 7ZM54.8457 13.048C55.359 13.048 55.779 12.8753 56.1057 12.53C56.4324 12.1753 56.5957 11.7227 56.5957 11.172V10.808H56.3437C55.6157 10.808 55.0557 10.8407 54.6637 10.906C54.2717 10.9713 53.9917 11.0833 53.8237 11.242C53.6557 11.3913 53.5717 11.6107 53.5717 11.9C53.5717 12.236 53.693 12.5113 53.9357 12.726C54.1784 12.9407 54.4817 13.048 54.8457 13.048Z" fill="#971D1D"/>
</svg>
